<svg width="362" height="126" viewBox="0 0 362 126" fill="none" xmlns="http://www.w3.org/2000/svg">
<path d="M148.504 21H347L271.407 86.3333L39.9999 119L148.504 21Z" fill="#1E1E1E"/>
<path d="M126.941 33.8942L339 13L283.276 119L47.9999 107.279L126.941 33.8942Z" fill="#F9C11B"/>
<path d="M50.9999 21L184.161 33.383L275 118L89.1934 88.0745L50.9999 21Z" fill="#0B80C2"/>
<path d="M22.9999 34L347 34.5221L306.371 105L40.9999 101.346L22.9999 34Z" fill="#00F0FF"/>
<path d="M43.9999 81.6429V57.3571H52.1011C54.681 57.3571 56.6099 58 57.8877 59.2857C59.1897 60.5714 59.8407 62.2857 59.8407 64.4286V66.3214C59.8407 68.4643 59.1897 70.1905 57.8877 71.5C56.6099 72.7857 54.681 73.4286 52.1011 73.4286H48.3398V81.6429H43.9999ZM52.1011 61.4643H48.3398V69.3214H52.1011C53.162 69.3214 53.9697 69.0595 54.5243 68.5357C55.1029 68.0119 55.3923 67.2738 55.3923 66.3214V64.4286C55.3923 63.5 55.1029 62.7738 54.5243 62.25C53.9697 61.7262 53.162 61.4643 52.1011 61.4643Z" fill="black"/>
<path d="M67.2989 72.7143V81.6429H62.9589V57.3571H71.1687C73.6521 57.3571 75.5569 57.9881 76.883 59.25C78.2332 60.4881 78.9083 62.1548 78.9083 64.25V65.7857C78.9083 67.1667 78.6069 68.381 78.0041 69.4286C77.4014 70.4762 76.5334 71.2738 75.4002 71.8214C77.3772 75.1548 79.065 78.4286 80.4634 81.6429H75.5087C74.3031 78.6667 72.8685 75.6905 71.2049 72.7143H67.2989ZM71.1687 61.2857H67.2989V68.7857H71.1687C72.2296 68.7857 73.0373 68.5238 73.5918 68C74.1705 67.4524 74.4598 66.7143 74.4598 65.7857V64.25C74.4598 63.3452 74.1705 62.631 73.5918 62.1071C73.0373 61.5595 72.2296 61.2857 71.1687 61.2857Z" fill="black"/>
<path d="M87.5294 81.6429H83.1895V57.3571H87.5294V81.6429Z" fill="black"/>
<path d="M106.214 77.5357V81.6429H90.4812V77.8929L100.752 61.4643H90.8429V57.3571H105.852V61.1071L95.5807 77.5357H106.214Z" fill="black"/>
<path d="M123.349 77.5357V81.6429H109.099V57.3571H122.987V61.4643H113.439V67.2857H121.902V71.3929H113.439V77.5357H123.349Z" fill="black"/>
<path d="M132.034 78.0357C134.83 78.0357 136.229 77.0119 136.229 74.9643C136.229 74.131 136.012 73.4762 135.578 73C135.168 72.5238 134.396 72.1071 133.263 71.75L130.298 70.7857C126.753 69.6429 124.981 67.3452 124.981 63.8929C124.981 61.8929 125.608 60.25 126.862 58.9643C128.14 57.6548 130.129 57 132.829 57C133.962 57 135.084 57.131 136.193 57.3929C137.302 57.631 138.483 58.0238 139.737 58.5714L138.399 62.25C137.241 61.7976 136.253 61.4762 135.433 61.2857C134.637 61.0714 133.818 60.9643 132.974 60.9643C131.865 60.9643 130.985 61.1667 130.334 61.5714C129.707 61.9524 129.393 62.6548 129.393 63.6786C129.393 64.4405 129.61 65.0714 130.044 65.5714C130.502 66.0476 131.25 66.4524 132.287 66.7857L135.252 67.75C137.037 68.3452 138.375 69.2143 139.267 70.3571C140.183 71.4762 140.641 72.9643 140.641 74.8214C140.641 76.9643 139.954 78.7024 138.58 80.0357C137.205 81.3452 135.047 82 132.106 82C130.949 82 129.743 81.869 128.489 81.6071C127.26 81.3214 125.909 80.8452 124.439 80.1786L125.777 76.5C127.127 77.0714 128.272 77.4762 129.213 77.7143C130.177 77.9286 131.117 78.0357 132.034 78.0357Z" fill="black"/>
<path d="M146.094 61.4643V57.3571H164.177V61.4643H157.306V81.6429H152.966V61.4643H146.094Z" fill="black"/>
<path d="M183.648 66.9286V72.0357C183.648 75.131 182.864 77.5714 181.297 79.3571C179.73 81.119 177.439 82 174.426 82C171.388 82 169.085 81.119 167.518 79.3571C165.975 77.5714 165.203 75.131 165.203 72.0357V66.9286C165.203 63.8333 165.975 61.4048 167.518 59.6429C169.085 57.881 171.388 57 174.426 57C177.439 57 179.73 57.881 181.297 59.6429C182.864 61.4048 183.648 63.8333 183.648 66.9286ZM179.199 66.9286C179.199 64.9762 178.814 63.5119 178.042 62.5357C177.271 61.5357 176.065 61.0357 174.426 61.0357C172.786 61.0357 171.58 61.5357 170.809 62.5357C170.037 63.5119 169.652 64.9762 169.652 66.9286V72.0357C169.652 73.9881 170.037 75.4643 170.809 76.4643C171.58 77.4643 172.786 77.9643 174.426 77.9643C176.065 77.9643 177.271 77.4643 178.042 76.4643C178.814 75.4643 179.199 73.9881 179.199 72.0357V66.9286Z" fill="black"/>
<path d="M193.009 81.6429V57.3571H200.496C202.328 57.3571 203.775 57.619 204.836 58.1429C205.921 58.6667 206.692 59.4048 207.15 60.3571C207.633 61.3095 207.874 62.4286 207.874 63.7143V64.7143C207.874 66.5952 207.054 68.0357 205.414 69.0357C206.572 69.4881 207.452 70.1429 208.055 71C208.657 71.8571 208.959 72.881 208.959 74.0714V75.0714C208.959 76.381 208.718 77.5357 208.235 78.5357C207.753 79.5119 206.957 80.2738 205.848 80.8214C204.739 81.369 203.256 81.6429 201.4 81.6429H193.009ZM200.496 61.2857H197.349V67.3571H200.496C201.46 67.3571 202.184 67.1429 202.666 66.7143C203.172 66.2619 203.425 65.6548 203.425 64.8929V63.7143C203.425 62.9524 203.172 62.3571 202.666 61.9286C202.184 61.5 201.46 61.2857 200.496 61.2857ZM201.4 71.2857H197.349V77.7143H201.4C202.413 77.7143 203.184 77.4762 203.715 77C204.245 76.5238 204.51 75.881 204.51 75.0714V73.8929C204.51 73.0833 204.245 72.4524 203.715 72C203.184 71.5238 202.413 71.2857 201.4 71.2857Z" fill="black"/>
<path d="M226.606 77.5357V81.6429H212.357V57.3571H226.245V61.4643H216.697V67.2857H225.16V71.3929H216.697V77.5357H226.606Z" fill="black"/>
<path d="M239.494 66.9643L240.868 75.9643L245.786 57.3571H249.692L254.575 75.8214L256.094 66.9643L257.975 57.3571H262.387L256.853 81.6429H252.405L247.667 63.5714L242.893 81.6429H238.445L232.911 57.3571H237.613L239.494 66.9643Z" fill="black"/>
<path d="M282.321 66.9286V72.0357C282.321 75.131 281.538 77.5714 279.97 79.3571C278.403 81.119 276.113 82 273.099 82C270.061 82 267.758 81.119 266.191 79.3571C264.648 77.5714 263.876 75.131 263.876 72.0357V66.9286C263.876 63.8333 264.648 61.4048 266.191 59.6429C267.758 57.881 270.061 57 273.099 57C276.113 57 278.403 57.881 279.97 59.6429C281.538 61.4048 282.321 63.8333 282.321 66.9286ZM277.873 66.9286C277.873 64.9762 277.487 63.5119 276.715 62.5357C275.944 61.5357 274.738 61.0357 273.099 61.0357C271.459 61.0357 270.254 61.5357 269.482 62.5357C268.711 63.5119 268.325 64.9762 268.325 66.9286V72.0357C268.325 73.9881 268.711 75.4643 269.482 76.4643C270.254 77.4643 271.459 77.9643 273.099 77.9643C274.738 77.9643 275.944 77.4643 276.715 76.4643C277.487 75.4643 277.873 73.9881 277.873 72.0357V66.9286Z" fill="black"/>
<path d="M286.251 81.6429V57.3571H290.229C292.134 59.8095 293.942 62.4048 295.654 65.1429C297.366 67.8571 298.921 70.6548 300.319 73.5357L299.994 66.2857V57.3571H304.153V81.6429H300.175C298.632 78.6429 297.028 75.631 295.365 72.6071C293.725 69.5595 291.977 66.6905 290.12 64L290.41 72.3571V81.6429H286.251Z" fill="black"/>
<path d="M312.457 74.5357H309.202L308.768 65.2143V57.3571H312.928V65.2143L312.457 74.5357ZM313 81.6429H308.624V77.3929H313V81.6429Z" fill="black"/>
<path d="M22.9214 100.671L18.4157 117.705L10.6317 113.298L22.9214 100.671Z" fill="#00F0FF"/>
<path d="M28.4666 82.5156L17.7873 89.4018L15.896 80.6587L28.4666 82.5156Z" fill="#00F0FF"/>
<path d="M22.6903 70.2383L5.68642 74.7392L5.67155 65.7939L22.6903 70.2383Z" fill="#00F0FF"/>
<path d="M122.565 23.0238L114.252 17.5396L117.732 14.3159L122.565 23.0238Z" fill="#00F0FF"/>
<path d="M132.067 19.8808L124.73 6.75108L131.805 4.84238L132.067 19.8808Z" fill="#00F0FF"/>
<path d="M339.081 65.1629L353.883 62.4952L353.387 69.8059L339.081 65.1629Z" fill="#00F0FF"/>
<path d="M333.368 90.0849L354.536 88.5485L351.541 101.048L333.368 90.0849Z" fill="#00F0FF"/>
<path d="M319.4 105.626L331.519 116.769L325.75 120.815L319.4 105.626Z" fill="#00F0FF"/>
<path d="M290.07 111.347L295.52 119.364L292.25 120.793L290.07 111.347Z" fill="#00F0FF"/>
</svg>
